<?xml version="1.0" encoding="UTF-8" standalone="no"?><!DOCTYPE svg PUBLIC "-//W3C//DTD SVG 1.1//EN" "http://www.w3.org/Graphics/SVG/1.1/DTD/svg11.dtd"><svg width="100%" height="100%" viewBox="0 0 410 410" version="1.1" xmlns="http://www.w3.org/2000/svg" xmlns:xlink="http://www.w3.org/1999/xlink" xml:space="preserve" xmlns:serif="http://www.serif.com/" style="fill-rule:evenodd;clip-rule:evenodd;stroke-linejoin:round;stroke-miterlimit:1.41421;"><g id="g3013"><path id="polygon2989" d="M350.094,80.696l-26.437,296.159l-118.835,32.945l-118.507,-32.898l-26.409,-296.206l290.188,0Z" style="fill:#264de4;fill-rule:nonzero;"/><path id="polygon2991" d="M301.024,357.997l22.592,-253.082l-118.616,0l0,279.703l96.024,-26.621Z" style="fill:#2965f1;fill-rule:nonzero;"/><path id="polygon2993" d="M120.448,214.774l3.256,36.328l81.296,0l0,-36.328l-84.552,0Z" style="fill:#ebebeb;fill-rule:nonzero;"/><path id="polygon2995" d="M205,141.244l-0.126,0l-90.968,0l3.302,36.329l87.792,0l0,-36.329Z" style="fill:#ebebeb;fill-rule:nonzero;"/><path id="polygon2997" d="M205,346.919l0,-37.797l-0.159,0.043l-40.459,-10.925l-2.587,-28.974l-19.66,0l-16.808,0l5.09,57.041l74.416,20.659l0.167,-0.047Z" style="fill:#ebebeb;fill-rule:nonzero;"/><path id="path2999" d="M128.2,0.2l44,0l0,18.4l-25.6,0l0,18.4l25.6,0l0,18.4l-44,0l0,-55.2Z" style="fill-rule:nonzero;"/><path id="path3001" d="M181,0.2l44,0l0,16l-25.6,0l0,3.2l25.6,0l0,36.8l-44,0l0,-16.8l25.6,0l0,-3.2l-25.6,0l0,-36Z" style="fill-rule:nonzero;"/><path id="path3003" d="M233.8,0.2l44,0l0,16l-25.6,0l0,3.2l25.6,0l0,36.8l-44,0l0,-16.8l25.6,0l0,-3.2l-25.6,0l0,-36Z" style="fill-rule:nonzero;"/><path id="polygon3005" d="M249.609,251.102l-4.217,47.115l-40.518,10.936l0,37.795l74.476,-20.641l0.546,-6.137l8.537,-95.641l0.886,-9.755l6.559,-73.53l-91.004,0l0,36.329l51.191,0l-3.306,37.201l-47.885,0l0,36.328l44.735,0Z" style="fill:#fff;fill-rule:nonzero;"/></g></svg>