<?xml version="1.0" encoding="UTF-8" standalone="no"?><!DOCTYPE svg PUBLIC "-//W3C//DTD SVG 1.1//EN" "http://www.w3.org/Graphics/SVG/1.1/DTD/svg11.dtd"><svg width="100%" height="100%" viewBox="0 0 2500 2499" version="1.1" xmlns="http://www.w3.org/2000/svg" xmlns:xlink="http://www.w3.org/1999/xlink" xml:space="preserve" xmlns:serif="http://www.serif.com/" style="fill-rule:evenodd;clip-rule:evenodd;stroke-linejoin:round;stroke-miterlimit:1.41421;"><path d="M920.344,946.55c86.843,-0.376 175.901,24.542 243.399,80.685c34.588,27.995 62.525,63.12 86.252,100.517c42.692,-69.009 105.052,-127.645 181.951,-155.909c93.708,-35.178 199.628,-32.748 293.175,1.732c81.71,29.83 153.155,81.816 217.949,138.989c50.689,44.746 97.596,93.707 149.798,136.779c27.508,22.316 57.066,43.228 90.897,54.791c44.961,15.35 98.138,0.869 130.291,-33.772c29.777,-32.422 27.938,-88.462 -4.864,-118.073c-20.858,-17.999 -56.524,-14.378 -71.284,9.612c-12.91,19.028 -5.669,42.75 4.44,61.178c-26.864,-19.614 -53.772,-46.961 -53.67,-82.627c-5.562,-41.232 25.025,-77.605 61.662,-92.033c71.499,-28.591 161.152,-3.942 206.279,59.012c43.394,58.744 46.849,135.964 39.286,205.944c-9.134,66.472 -46.312,128.514 -101.436,166.99c-77.383,55.231 -175.472,72.356 -268.799,71.17c-89.707,-2.434 -178.497,-22.697 -261.612,-56.206c-138.991,-55.875 -269.067,-133.1 -412.6,-177.733c-47.61,-18.482 -98.246,-28.479 -149.154,-31.563c-40.531,-0.268 -78.953,-2.161 -117.215,0.434c-46.693,4.489 -93.113,14.052 -136.83,31.177c-145.962,45.4 -277.986,124.567 -419.626,180.554c-119.596,46.526 -252.102,68.145 -379.041,42.311c-71.011,-14.374 -141.699,-45.77 -189.631,-101.704c-41.019,-47.556 -60.686,-111.212 -58.749,-173.576c-2.269,-58.851 10.646,-121.376 49.557,-167.205c36.202,-43.442 94.517,-65.491 150.505,-60.626c36.042,1.673 72.576,17.398 94.84,46.419c17.511,22.965 18.589,54.42 10.914,81.275c-9.348,24.156 -28.64,43.018 -49.606,57.499c10.7,-18.052 17.185,-41.882 4.538,-60.744c-15.564,-25.127 -53.88,-27.664 -74.143,-7.026c-24.966,25.674 -30.211,67.609 -13.456,99.059c18.155,32.968 55.719,51.772 92.083,55.607c55.017,4.757 102.734,-29.343 143.104,-62.413c83.544,-71.932 158.765,-154.231 251.448,-215.082c76.417,-51.23 166.446,-85.871 259.344,-85.437l0.004,-0.005Z" style="fill:#423426;fill-rule:nonzero;"/></svg>