<?xml version="1.0" encoding="UTF-8" standalone="no"?><!DOCTYPE svg PUBLIC "-//W3C//DTD SVG 1.1//EN" "http://www.w3.org/Graphics/SVG/1.1/DTD/svg11.dtd"><svg width="100%" height="100%" viewBox="0 0 23 21" version="1.1" xmlns="http://www.w3.org/2000/svg" xmlns:xlink="http://www.w3.org/1999/xlink" xml:space="preserve" xmlns:serif="http://www.serif.com/" style="fill-rule:evenodd;clip-rule:evenodd;stroke-linejoin:round;stroke-miterlimit:1.41421;"><path d="M18.911,6.633c-0.245,-0.084 -0.492,-0.162 -0.741,-0.234c0.042,-0.167 0.08,-0.336 0.115,-0.505c0.56,-2.72 0.194,-4.912 -1.058,-5.634c-1.2,-0.692 -3.162,0.03 -5.144,1.755c-0.195,0.17 -0.386,0.345 -0.572,0.525c-0.125,-0.12 -0.252,-0.237 -0.381,-0.352c-2.077,-1.844 -4.159,-2.621 -5.409,-1.898c-1.199,0.694 -1.554,2.755 -1.05,5.333c0.051,0.256 0.107,0.509 0.17,0.762c-0.294,0.084 -0.579,0.173 -0.851,0.268c-2.435,0.849 -3.99,2.179 -3.99,3.559c0,1.426 1.669,2.856 4.206,3.722c0.205,0.07 0.413,0.135 0.622,0.195c-0.068,0.272 -0.128,0.545 -0.181,0.821c-0.481,2.533 -0.105,4.545 1.09,5.235c1.235,0.712 3.307,-0.02 5.326,-1.784c0.159,-0.14 0.319,-0.287 0.479,-0.443c0.202,0.195 0.41,0.384 0.622,0.568c1.955,1.682 3.885,2.361 5.08,1.67c1.234,-0.715 1.635,-2.876 1.114,-5.505c-0.04,-0.201 -0.086,-0.406 -0.138,-0.615c0.146,-0.043 0.288,-0.087 0.428,-0.133c2.637,-0.874 4.352,-2.286 4.352,-3.731c0,-1.385 -1.605,-2.724 -4.089,-3.579Zm-6.183,-3.877c1.698,-1.478 3.285,-2.061 4.009,-1.644c0.77,0.444 1.069,2.235 0.585,4.584c-0.031,0.153 -0.066,0.305 -0.103,0.457c-1.013,-0.229 -2.041,-0.392 -3.075,-0.486c-0.593,-0.851 -1.243,-1.662 -1.945,-2.426c0.173,-0.166 0.349,-0.328 0.529,-0.485Zm-5.937,8.635c0.208,0.402 0.425,0.799 0.652,1.19c0.231,0.4 0.472,0.794 0.722,1.182c-0.712,-0.078 -1.419,-0.191 -2.119,-0.341c0.203,-0.656 0.453,-1.338 0.745,-2.031Zm-0.001,-2.311c-0.286,-0.678 -0.531,-1.345 -0.731,-1.99c0.656,-0.147 1.356,-0.267 2.085,-0.358c-0.244,0.381 -0.479,0.767 -0.705,1.159c-0.225,0.391 -0.442,0.788 -0.649,1.189Zm0.522,1.156c0.303,-0.63 0.629,-1.248 0.979,-1.854l0,0c0.349,-0.606 0.72,-1.198 1.115,-1.775c0.684,-0.052 1.385,-0.079 2.094,-0.079c0.712,0 1.414,0.027 2.098,0.079c0.39,0.577 0.76,1.167 1.108,1.77c0.351,0.604 0.681,1.219 0.992,1.845c-0.307,0.632 -0.637,1.253 -0.988,1.862l0,0c-0.349,0.605 -0.717,1.198 -1.104,1.78c-0.682,0.049 -1.387,0.074 -2.106,0.074c-0.716,0 -1.412,-0.022 -2.082,-0.066c-0.397,-0.58 -0.772,-1.174 -1.124,-1.783c-0.351,-0.605 -0.678,-1.223 -0.982,-1.853l0,0Zm8.249,2.339c0.231,-0.402 0.453,-0.808 0.667,-1.219c0.292,0.661 0.55,1.336 0.772,2.023c-0.708,0.159 -1.424,0.281 -2.145,0.366c0.243,-0.385 0.478,-0.776 0.706,-1.17l0,0Zm0.657,-3.494c-0.212,-0.403 -0.433,-0.802 -0.661,-1.197c-0.225,-0.388 -0.458,-0.772 -0.7,-1.15c0.734,0.093 1.437,0.216 2.098,0.367c-0.212,0.672 -0.458,1.333 -0.737,1.98l0,0Zm-4.707,-5.137c0.478,0.521 0.93,1.066 1.353,1.634c-0.905,-0.043 -1.811,-0.043 -2.718,-0.001c0.447,-0.589 0.905,-1.137 1.365,-1.633Zm-5.298,-2.803c0.769,-0.446 2.471,0.19 4.264,1.782c0.115,0.102 0.23,0.208 0.345,0.318c-0.706,0.764 -1.36,1.574 -1.959,2.425c-1.032,0.093 -2.058,0.252 -3.069,0.477c-0.059,-0.235 -0.112,-0.471 -0.158,-0.709l0,0.001c-0.433,-2.21 -0.146,-3.876 0.577,-4.294Zm-1.122,12.041c-0.19,-0.054 -0.38,-0.113 -0.567,-0.177c-0.974,-0.307 -1.884,-0.79 -2.683,-1.425c-0.463,-0.318 -0.774,-0.813 -0.858,-1.368c0,-0.837 1.248,-1.905 3.331,-2.631c0.261,-0.091 0.525,-0.174 0.791,-0.25c0.31,0.992 0.684,1.963 1.121,2.905c-0.442,0.956 -0.822,1.94 -1.135,2.946Zm5.325,4.479c-0.752,0.691 -1.625,1.237 -2.575,1.612l0,0c-0.506,0.242 -1.09,0.264 -1.613,0.061c-0.725,-0.419 -1.027,-2.034 -0.616,-4.201c0.049,-0.256 0.105,-0.51 0.168,-0.763c1.022,0.219 2.058,0.369 3.1,0.448c0.604,0.856 1.263,1.671 1.974,2.44c-0.143,0.138 -0.289,0.272 -0.438,0.403Zm1.122,-1.111c-0.466,-0.502 -0.93,-1.058 -1.384,-1.656c0.441,0.018 0.889,0.026 1.346,0.026c0.469,0 0.932,-0.01 1.388,-0.03c-0.421,0.576 -0.872,1.13 -1.35,1.66l0,0Zm5.967,1.367c-0.043,0.56 -0.316,1.077 -0.753,1.428c-0.725,0.42 -2.275,-0.126 -3.947,-1.564c-0.192,-0.165 -0.384,-0.341 -0.578,-0.527c0.697,-0.772 1.341,-1.59 1.928,-2.448c1.048,-0.089 2.089,-0.249 3.115,-0.48c0.047,0.189 0.088,0.374 0.124,0.556c0.223,0.996 0.26,2.025 0.111,3.035l0,0Zm0.834,-4.907l0,0c-0.126,0.042 -0.255,0.082 -0.387,0.121c-0.321,-0.997 -0.71,-1.97 -1.164,-2.914c0.437,-0.931 0.811,-1.89 1.119,-2.871c0.235,0.068 0.464,0.14 0.684,0.216c2.128,0.732 3.427,1.816 3.427,2.65c0,0.889 -1.403,2.044 -3.679,2.798l0,0Z" style="fill:#61dafb;fill-rule:nonzero;"/><path d="M11.5,8.159c0,-0.001 0,-0.001 0,-0.001c1.127,0 2.054,0.928 2.054,2.054c0,1.127 -0.927,2.054 -2.054,2.054c-1.127,0 -2.054,-0.927 -2.054,-2.054c0,0 0,0 0,0c0,-1.126 0.927,-2.054 2.054,-2.054" style="fill:#61dafb;fill-rule:nonzero;"/></svg>