<?xml version="1.0" encoding="UTF-8" standalone="no"?><!DOCTYPE svg PUBLIC "-//W3C//DTD SVG 1.1//EN" "http://www.w3.org/Graphics/SVG/1.1/DTD/svg11.dtd"><svg width="100%" height="100%" viewBox="0 0 32 32" version="1.1" xmlns="http://www.w3.org/2000/svg" xmlns:xlink="http://www.w3.org/1999/xlink" xml:space="preserve" xmlns:serif="http://www.serif.com/" style="fill-rule:evenodd;clip-rule:evenodd;stroke-linejoin:round;stroke-miterlimit:1.41421;"><path d="M29.181,19.07c-1.679,-2.908 -0.669,-6.634 2.255,-8.328l-3.145,-5.447c-0.898,0.527 -1.943,0.829 -3.058,0.829c-3.361,0 -6.085,-2.742 -6.085,-6.125l-6.289,0c0.008,1.044 -0.252,2.103 -0.811,3.07c-1.679,2.908 -5.411,3.897 -8.339,2.211l-3.144,5.447c0.905,0.515 1.689,1.268 2.246,2.234c1.676,2.903 0.672,6.623 -2.241,8.319l3.145,5.447c0.895,-0.522 1.935,-0.82 3.044,-0.82c3.35,0 6.067,2.725 6.084,6.092l6.289,0c-0.003,-1.034 0.259,-2.08 0.811,-3.038c1.676,-2.903 5.399,-3.894 8.325,-2.219l3.145,-5.447c-0.899,-0.515 -1.678,-1.266 -2.232,-2.226l0,0.001Zm-13.181,3.409c-3.578,0 -6.479,-2.901 -6.479,-6.479c0,-3.578 2.901,-6.479 6.479,-6.479c3.578,0 6.479,2.901 6.479,6.479c0,3.578 -2.901,6.479 -6.479,6.479Z" style="fill:#fc9728;fill-rule:nonzero;"/></svg>